<svg width="2471" height="366" viewBox="0 0 2471 366" fill="none" xmlns="http://www.w3.org/2000/svg">
<path d="M1.14286 350L258.143 15C262.476 9.66667 267.976 7 274.643 7H338.143C340.143 7 341.476 7.83333 342.143 9.5C343.143 11.1667 342.976 12.8333 341.643 14.5L84.6429 349C80.6429 354.667 75.1429 357.5 68.1429 357.5H4.64286C2.97619 357.5 1.64286 356.667 0.642857 355C-0.357143 353.333 -0.190476 351.667 1.14286 350Z" fill="#FF4566"/>
<path d="M387.776 6.00001H439.276C440.942 6.00001 442.442 6.66668 443.776 8.00002C445.109 9 445.776 10.3333 445.776 12V248L625.276 14C629.609 8.66667 635.109 6.00001 641.776 6.00001H705.276C707.276 6.00001 708.609 6.83334 709.276 8.50001C710.276 10.1667 710.276 11.6667 709.276 13L451.776 348C447.442 353.333 441.942 356 435.276 356H387.776C386.109 356 384.609 355.5 383.276 354.5C382.276 353.167 381.776 351.667 381.776 350V12C381.776 10.3333 382.276 9 383.276 8.00002C384.609 6.66668 386.109 6.00001 387.776 6.00001Z" fill="#ECE8E0"/>
<path d="M739.463 109.5C739.463 93.8333 742.63 79.3333 748.963 66C755.63 52.6667 764.463 41.1667 775.463 31.5C786.797 21.8334 799.797 14.1667 814.463 8.50001C829.463 2.83334 845.297 0 861.963 0C887.963 0 910.463 4.66667 929.463 14C948.797 23 963.297 33.5 972.963 45.5C975.297 48.5 975.13 51.1667 972.463 53.5L937.963 89.5C936.63 90.8333 934.963 91.5 932.963 91.5C931.297 91.5 929.797 90.6667 928.463 89C925.463 85.6667 921.63 82.3334 916.963 79C912.63 75.6667 907.463 72.6667 901.463 70C895.797 67 889.63 64.6667 882.963 63C876.297 61.3333 869.463 60.5 862.463 60.5C854.13 60.5 846.463 61.8333 839.463 64.5C832.797 66.8334 827.13 70 822.463 74C817.797 78 814.13 82.6667 811.463 88C808.797 93.3333 807.463 99 807.463 105C807.463 114.667 810.63 123 816.963 130C823.297 137 832.797 141.833 845.463 144.5L894.463 154C910.463 157 924.463 161.833 936.463 168.5C948.797 174.833 958.963 182.5 966.963 191.5C975.297 200.5 981.63 210.667 985.963 222C990.297 233 992.463 244.667 992.463 257C992.463 270.333 989.63 283.5 983.963 296.5C978.63 309.5 970.463 321.167 959.463 331.5C948.797 341.833 935.63 350.167 919.963 356.5C904.297 362.5 886.297 365.5 865.963 365.5C851.63 365.5 838.13 364 825.463 361C813.13 358 801.797 354.167 791.463 349.5C781.463 344.5 772.63 339.167 764.963 333.5C757.297 327.5 750.963 321.667 745.963 316C743.63 313.667 743.63 311 745.963 308L777.463 267.5C778.463 265.833 779.797 265 781.463 265C783.463 264.667 785.13 265.167 786.463 266.5C791.13 270.833 796.297 275.333 801.963 280C807.63 284.333 813.797 288.333 820.463 292C827.13 295.667 834.297 298.667 841.963 301C849.63 303.333 857.797 304.5 866.463 304.5C884.797 304.5 898.797 300.5 908.463 292.5C918.13 284.5 922.963 274.167 922.963 261.5C922.963 251.5 919.297 242.833 911.963 235.5C904.963 227.833 894.463 222.667 880.463 220L831.463 210C803.463 204.333 781.13 192.833 764.463 175.5C747.797 158.167 739.463 136.167 739.463 109.5Z" fill="#ECE8E0"/>
<path d="M1127.4 178.5L1252.9 15C1257.23 9.66667 1262.73 7 1269.4 7H1332.9C1334.9 7 1336.23 7.83333 1336.9 9.5C1337.9 10.8333 1337.9 12.3333 1336.9 14L1207.9 182L1336.4 350C1337.73 351.667 1337.9 353.333 1336.9 355C1336.23 356.333 1334.9 357 1332.9 357H1269.4C1262.73 357 1257.23 354.333 1252.9 349L1127.4 186C1125.73 183.333 1125.73 180.833 1127.4 178.5ZM1043.4 13C1043.4 11.3333 1043.9 10 1044.9 9C1046.23 7.66667 1047.73 7 1049.4 7H1100.9C1105.23 7 1107.4 9 1107.4 13V351C1107.4 355 1105.23 357 1100.9 357H1049.4C1047.73 357 1046.23 356.5 1044.9 355.5C1043.9 354.167 1043.4 352.667 1043.4 351V13Z" fill="#ECE8E0"/>
<path d="M1382.4 7H1433.9C1438.24 7 1440.4 9 1440.4 13V351C1440.4 355 1438.24 357 1433.9 357H1382.4C1380.74 357 1379.24 356.5 1377.9 355.5C1376.9 354.167 1376.4 352.667 1376.4 351V13C1376.4 11.3333 1376.9 10 1377.9 9C1379.24 7.66667 1380.74 7 1382.4 7Z" fill="#ECE8E0"/>
<path d="M1512.64 351V13C1512.64 11.3333 1513.14 10 1514.14 9C1515.47 7.66667 1516.97 7 1518.64 7H1566.14C1572.8 7 1578.3 9.66667 1582.64 15L1762.64 249V13C1762.64 9 1764.64 7 1768.64 7H1820.14C1824.14 7 1826.14 9 1826.14 13V351C1826.14 355 1824.14 357 1820.14 357H1772.64C1765.97 357 1760.47 354.333 1756.14 349L1576.64 115V351C1576.64 355 1574.47 357 1570.14 357H1518.64C1516.97 357 1515.47 356.5 1514.14 355.5C1513.14 354.167 1512.64 352.667 1512.64 351Z" fill="#ECE8E0"/>
<path d="M1888.88 109.5C1888.88 93.8333 1892.04 79.3333 1898.38 66C1905.04 52.6667 1913.88 41.1667 1924.88 31.5C1936.21 21.8334 1949.21 14.1667 1963.88 8.50001C1978.88 2.83334 1994.71 0 2011.38 0C2037.38 0 2059.88 4.66667 2078.88 14C2098.21 23 2112.71 33.5 2122.38 45.5C2124.71 48.5 2124.54 51.1667 2121.88 53.5L2087.38 89.5C2086.04 90.8333 2084.38 91.5 2082.38 91.5C2080.71 91.5 2079.21 90.6667 2077.88 89C2074.88 85.6667 2071.04 82.3334 2066.38 79C2062.04 75.6667 2056.88 72.6667 2050.88 70C2045.21 67 2039.04 64.6667 2032.38 63C2025.71 61.3333 2018.88 60.5 2011.88 60.5C2003.54 60.5 1995.88 61.8333 1988.88 64.5C1982.21 66.8334 1976.54 70 1971.88 74C1967.21 78 1963.54 82.6667 1960.88 88C1958.21 93.3333 1956.88 99 1956.88 105C1956.88 114.667 1960.04 123 1966.38 130C1972.71 137 1982.21 141.833 1994.88 144.5L2043.88 154C2059.88 157 2073.88 161.833 2085.88 168.5C2098.21 174.833 2108.38 182.5 2116.38 191.5C2124.71 200.5 2131.04 210.667 2135.38 222C2139.71 233 2141.88 244.667 2141.88 257C2141.88 270.333 2139.04 283.5 2133.38 296.5C2128.04 309.5 2119.88 321.167 2108.88 331.5C2098.21 341.833 2085.04 350.167 2069.38 356.5C2053.71 362.5 2035.71 365.5 2015.38 365.5C2001.04 365.5 1987.54 364 1974.88 361C1962.54 358 1951.21 354.167 1940.88 349.5C1930.88 344.5 1922.04 339.167 1914.38 333.5C1906.71 327.5 1900.38 321.667 1895.38 316C1893.04 313.667 1893.04 311 1895.38 308L1926.88 267.5C1927.88 265.833 1929.21 265 1930.88 265C1932.88 264.667 1934.54 265.167 1935.88 266.5C1940.54 270.833 1945.71 275.333 1951.38 280C1957.04 284.333 1963.21 288.333 1969.88 292C1976.54 295.667 1983.71 298.667 1991.38 301C1999.04 303.333 2007.21 304.5 2015.88 304.5C2034.21 304.5 2048.21 300.5 2057.88 292.5C2067.54 284.5 2072.38 274.167 2072.38 261.5C2072.38 251.5 2068.71 242.833 2061.38 235.5C2054.38 227.833 2043.88 222.667 2029.88 220L1980.88 210C1952.88 204.333 1930.54 192.833 1913.88 175.5C1897.21 158.167 1888.88 136.167 1888.88 109.5Z" fill="#ECE8E0"/>
<path d="M2199.31 289.5H2463.81C2468.14 289.5 2470.31 291.667 2470.31 296V350.5C2470.31 354.833 2468.14 357 2463.81 357H2199.31C2194.98 357 2192.81 354.833 2192.81 350.5V296C2192.81 291.667 2194.98 289.5 2199.31 289.5Z" fill="#FF4566"/>
</svg>
